<svg width="1071" height="418" viewBox="0 0 1071 418" fill="none" xmlns="http://www.w3.org/2000/svg">
<path d="M247 150H549V206H247V150Z" fill="#4CC8A3"/>
<path d="M160 297L160 115L220 115L220 297L160 297Z" fill="#4CC8A3"/>
<path d="M370.952 297H247V242H426L370.952 297Z" fill="#4CC8A3"/>
<path d="M1023 176H967.815L958.144 153.936H883.856L874.421 176H819L835.498 137.518L936.6 80.8798L874.662 46.1809L894.467 0H947.766L1023 176Z" fill="#2E2E2E"/>
<path d="M247 115H103.292L0 59H247V115Z" fill="#4CC8A3"/>
<path d="M883.698 59.648L921 80.728L889.76 98.3809L889.771 98.4004L841 126L854.797 93.2655L854.794 93.2694L871.964 53H871.967L883.698 59.648Z" fill="#4CC8A3"/>
<path d="M426 115H247V59H370.671L426 115Z" fill="#4CC8A3"/>
<path d="M644 176.711L479.766 341H379.118L543.352 176.711L378 11.3029L378.303 11H478.345L644 176.711Z" fill="#4CC8A3"/>
<path d="M804 176H752.042V94.1749L707.406 176H687.802L687.682 175.784L687.468 176L523 11.9211H581.977L689.613 119.301L697.658 104.375L697.724 104.498L752.042 4H804V176Z" fill="#2E2E2E"/>
<path d="M868 341V213H908.274L974.726 290.531V213H1015V341H974.726L908.274 263.469V341H868Z" fill="#2E2E2E"/>
<path d="M833.417 276C833.417 310.518 805.248 338.5 770.5 338.5M833.417 276C833.417 241.482 805.248 213.5 770.5 213.5M833.417 276H707.583M770.5 338.5C735.752 338.5 707.583 310.518 707.583 276M770.5 338.5C786.237 321.385 795.181 299.175 795.667 276C795.181 252.825 786.237 230.615 770.5 213.5M770.5 338.5C754.763 321.385 745.819 299.175 745.333 276C745.819 252.825 754.763 230.615 770.5 213.5M707.583 276C707.583 241.482 735.752 213.5 770.5 213.5" stroke="#2E2E2E" stroke-width="17" stroke-linecap="round" stroke-linejoin="round"/>
<path d="M686 214.427L623.733 277.187L678.065 340.409H626.856L596.875 304.259L560.429 341L510.066 340.996L510 340.93L660.725 189L686 214.427Z" fill="#2E2E2E"/>
<path d="M68.4804 366.722H104.537V369.731H88.0644V402.422H84.9024V369.731H68.4804V366.722ZM102.893 388.652C102.893 378.86 111.308 374.066 118.499 374.066C126.404 374.066 131.861 380.237 132.116 388.091H106.208C105.953 394.007 110.033 400.127 118.499 400.127C122.375 400.127 126.455 398.852 128.852 395.18L131.3 397.271C128.189 401.045 122.936 403.238 118.499 403.238C111.308 403.238 102.893 398.444 102.893 388.652ZM106.718 385.184H128.495C128.24 381.818 124.415 377.126 118.499 377.126C111.971 377.126 108.044 380.798 106.718 385.184ZM138.748 402.422V366.722H141.91V389.621L158.791 374.882H163.432L150.682 385.898C159.556 386.561 159.76 399.26 167.512 399.26L167.563 402.422C157.363 402.422 156.802 387.836 148.336 387.938L141.91 393.497V402.422H138.748ZM176.386 402.422H173.224V380.594C173.224 379.472 173.224 378.044 172 378.044H170.827V374.882H172C174.652 374.882 176.233 376.565 176.386 379.064C178.528 376.055 182.149 374.321 186.637 374.321C194.185 374.321 199.54 378.248 199.54 386.204V395.996C199.54 398.291 200.05 399.26 202.447 399.26H202.804L202.855 402.422C198.571 402.422 196.327 400.586 196.327 395.945V388.55C196.327 381.665 194.797 377.228 186.433 377.228C180.823 377.228 176.386 380.543 176.386 385.796V402.422ZM238.83 388.652C238.83 398.444 230.415 403.187 223.275 403.187C216.084 403.187 207.72 398.444 207.72 388.652C207.72 378.911 216.084 374.168 223.275 374.168C230.415 374.168 238.83 378.911 238.83 388.652ZM235.617 388.652C235.617 380.798 228.987 376.973 223.275 376.973C217.563 376.973 210.882 380.798 210.882 388.652C210.882 396.557 217.563 400.382 223.275 400.382C228.987 400.382 235.617 396.557 235.617 388.652ZM246.064 402.422V364.172H249.226V402.422H246.064ZM287.662 388.652C287.662 398.444 279.247 403.187 272.107 403.187C264.916 403.187 256.552 398.444 256.552 388.652C256.552 378.911 264.916 374.168 272.107 374.168C279.247 374.168 287.662 378.911 287.662 388.652ZM284.449 388.652C284.449 380.798 277.819 376.973 272.107 376.973C266.395 376.973 259.714 380.798 259.714 388.652C259.714 396.557 266.395 400.382 272.107 400.382C277.819 400.382 284.449 396.557 284.449 388.652ZM298.058 402.422H294.896V364.172H298.058V379.931C300.047 376.31 303.362 374.321 308.309 374.321C315.857 374.321 321.212 378.248 321.212 386.204V395.996C321.212 398.291 321.722 399.26 324.119 399.26H324.476L324.527 402.422C320.243 402.422 317.999 400.586 317.999 395.945V388.55C317.999 381.665 316.469 377.228 308.105 377.228C302.495 377.228 298.058 380.237 298.058 385.796V402.422ZM330.002 369.017C330.002 367.589 330.971 366.62 332.399 366.62C333.776 366.62 334.745 367.589 334.745 369.017C334.745 370.445 333.776 371.363 332.399 371.363C330.971 371.363 330.002 370.445 330.002 369.017ZM333.929 402.422H330.767V374.882H333.929V402.422ZM342.939 391.049V374.882H346.101V391.049C346.101 397.526 351.048 400.739 356.046 400.739C360.84 400.739 365.685 397.73 365.94 391.61L365.991 374.882H369.153V398.036C369.153 408.746 364.053 415.223 353.241 415.223C349.773 415.223 345.591 414.05 342.531 412.52L343.959 409.715C346.56 411.041 350.283 412.061 353.241 412.061C363.645 412.061 365.889 406.043 365.94 398.444C363.543 401.81 359.565 403.493 355.536 403.493C349.263 403.493 342.939 399.362 342.939 391.049ZM380.408 380.084L378.776 377.33C381.683 375.545 386.171 374.372 390.455 374.372C396.932 374.372 403.052 377.024 403.052 384.113V395.996C403.052 398.291 403.613 399.26 406.01 399.26H406.367V402.422C402.134 402.422 399.89 400.586 399.89 395.945V394.874C397.085 399.566 391.016 402.422 385.151 402.677C378.878 402.932 375.869 399.311 375.869 395.384C375.869 390.947 379.745 386.153 387.191 386.306L395.249 386.408C396.677 386.408 399.686 386.561 399.89 384.623C399.788 379.319 395.402 377.381 390.608 377.381C386.885 377.381 382.907 378.554 380.408 380.084ZM399.89 388.448C398.768 389.417 397.034 389.621 394.943 389.57L387.242 389.468C381.989 389.366 378.98 392.579 378.98 395.384C378.98 397.73 381.02 399.77 385.457 399.515C391.373 399.158 399.686 394.619 399.89 388.754V388.448ZM415.743 402.422H412.581V380.594C412.581 379.472 412.581 378.044 411.357 378.044H410.184V374.882H411.357C414.009 374.882 415.59 376.565 415.743 379.064C417.885 376.055 421.506 374.321 425.994 374.321C433.542 374.321 438.897 378.248 438.897 386.204V395.996C438.897 398.291 439.407 399.26 441.804 399.26H442.161L442.212 402.422C437.928 402.422 435.684 400.586 435.684 395.945V388.55C435.684 381.665 434.154 377.228 425.79 377.228C420.18 377.228 415.743 380.543 415.743 385.796V402.422ZM472.679 374.882H474.872V398.036C474.872 408.746 469.772 415.223 458.96 415.223C455.543 415.223 451.31 414.05 448.25 412.52L449.678 409.715C453.044 411.398 456.461 412.316 459.521 412.316C466.355 412.316 471.71 407.879 471.71 398.036V396.965C469.415 401.249 465.386 403.187 461.153 403.187C454.268 403.187 447.026 397.883 447.026 388.652C447.026 379.472 454.268 374.117 461.153 374.117C465.335 374.117 469.415 376.106 471.71 380.39L472.679 374.882ZM450.239 388.652C450.239 396.302 455.798 400.382 461.255 400.382C466.508 400.382 471.71 396.608 471.71 388.652C471.71 380.747 466.508 376.973 461.255 376.973C455.798 376.973 450.239 381.053 450.239 388.652ZM505.179 402.422H502.017V380.594C502.017 379.472 502.017 378.044 500.793 378.044H499.62V374.882H500.793C503.343 374.882 504.873 376.463 505.128 378.758C507.066 375.851 510.177 374.321 514.155 374.321C518.388 374.321 521.397 376.259 522.825 380.237C524.559 376.361 527.976 374.321 532.566 374.321C538.635 374.321 542.103 378.248 542.103 386.204V395.996C542.103 398.291 542.664 399.26 545.01 399.26H545.367L545.418 402.422C541.134 402.422 538.89 400.586 538.941 395.945V386.204C538.941 381.104 537.462 377.228 532.311 377.228C527.925 377.228 524.151 379.931 523.641 384.725C523.692 385.184 523.692 385.694 523.692 386.204V402.422L520.479 402.371L520.53 386.204C520.53 381.104 519.051 377.228 513.9 377.228C509.157 377.228 505.179 380.288 505.179 385.796V402.422ZM554.236 380.084L552.604 377.33C555.511 375.545 559.999 374.372 564.283 374.372C570.76 374.372 576.88 377.024 576.88 384.113V395.996C576.88 398.291 577.441 399.26 579.838 399.26H580.195V402.422C575.962 402.422 573.718 400.586 573.718 395.945V394.874C570.913 399.566 564.844 402.422 558.979 402.677C552.706 402.932 549.697 399.311 549.697 395.384C549.697 390.947 553.573 386.153 561.019 386.306L569.077 386.408C570.505 386.408 573.514 386.561 573.718 384.623C573.616 379.319 569.23 377.381 564.436 377.381C560.713 377.381 556.735 378.554 554.236 380.084ZM573.718 388.448C572.596 389.417 570.862 389.621 568.771 389.57L561.07 389.468C555.817 389.366 552.808 392.579 552.808 395.384C552.808 397.73 554.848 399.77 559.285 399.515C565.201 399.158 573.514 394.619 573.718 388.754V388.448ZM585.671 391.049V374.882H588.833V391.049C588.833 397.526 593.78 400.739 598.778 400.739C603.572 400.739 608.417 397.73 608.672 391.61L608.723 374.882H611.885V398.036C611.885 408.746 606.785 415.223 595.973 415.223C592.505 415.223 588.323 414.05 585.263 412.52L586.691 409.715C589.292 411.041 593.015 412.061 595.973 412.061C606.377 412.061 608.621 406.043 608.672 398.444C606.275 401.81 602.297 403.493 598.268 403.493C591.995 403.493 585.671 399.362 585.671 391.049Z" fill="#2E2E2E"/>
<path d="M663.864 402.422L651.012 388.244L646.983 392.171V402.422H638.466V366.722H646.983V381.257L661.977 366.722H672.789L656.622 382.685L674.931 402.422H663.864ZM707.372 388.601C707.372 398.444 698.804 403.238 691.46 403.238C684.116 403.238 675.497 398.444 675.497 388.601C675.497 378.758 684.116 373.964 691.46 373.964C698.804 373.964 707.372 378.758 707.372 388.601ZM699.008 388.601C699.008 383.96 694.928 381.716 691.46 381.716C687.992 381.716 683.912 383.96 683.912 388.601C683.912 393.191 687.992 395.486 691.46 395.486C694.928 395.486 699.008 393.191 699.008 388.601ZM721.508 402.422H713.144V383.093C713.093 382.124 712.94 381.053 711.869 381.053H710.696V374.882H711.92C714.623 374.882 721.151 374.882 721.508 379.115C723.344 376.463 726.506 374.321 730.943 374.321C738.95 374.321 742.928 378.248 742.928 386.204V392.987C742.928 395.282 743.438 396.302 745.835 396.302H746.192L746.243 402.422C741.959 402.422 734.513 402.677 734.513 395.945V388.55C734.513 383.195 732.83 380.645 728.393 380.645C724.772 380.645 721.508 383.603 721.559 388.652L721.508 388.601V402.422ZM779.108 378.248L775.538 384.317C772.784 382.226 767.378 380.696 763.502 380.696C761.003 380.696 759.167 381.359 759.167 382.889C759.167 386.816 779.159 383.858 779.159 395.129C779.159 401.351 772.529 403.85 765.287 403.85C759.422 403.85 753.098 402.218 749.63 399.566L753.2 393.242C756.005 395.741 761.819 397.271 766.001 397.271C768.704 397.271 770.744 396.608 770.744 395.129C770.744 390.386 751.109 394.619 751.109 382.532C751.109 376.361 757.025 373.964 763.655 373.964C769.265 373.964 775.487 375.698 779.108 378.248ZM784.322 367.997C784.322 365.498 786.056 363.866 788.708 363.866C791.36 363.866 793.145 365.498 793.145 367.997C793.145 370.445 791.36 372.128 788.708 372.128C786.056 372.128 784.322 370.445 784.322 367.997ZM792.89 402.422H784.526V374.882H792.89V402.422ZM821.47 364.172H829.834V402.422H822.49L821.674 398.036C819.379 401.555 815.758 403.187 811.984 403.187C805.252 403.187 798.214 397.883 798.214 388.652C798.214 379.472 805.252 374.117 811.984 374.117C815.605 374.117 819.124 375.647 821.47 378.962V364.172ZM806.629 388.652C806.629 393.854 810.505 396.557 814.228 396.557C817.849 396.557 821.419 394.007 821.419 388.652C821.419 383.297 817.849 380.798 814.228 380.798C810.505 380.798 806.629 383.501 806.629 388.652ZM835.528 388.703C835.528 378.962 843.943 373.964 851.134 373.964C858.733 373.964 865.516 379.421 865.567 389.519L844.045 389.468C844.555 392.885 847.003 395.894 851.338 395.894C854.704 395.894 857.101 394.619 858.784 392.324L864.343 397.271C861.283 401.045 856.54 403.493 851.083 403.493C843.943 403.493 835.528 398.444 835.528 388.703ZM844.657 384.419H857.509C856.54 382.073 854.551 379.982 851.491 379.982C847.972 379.982 845.728 381.92 844.657 384.419ZM879.1 402.422H870.736V383.093C870.685 382.124 870.532 381.053 869.461 381.053H868.288V374.882H869.512C872.266 374.882 879.1 374.882 879.1 379.472V379.523C880.987 376.616 883.792 374.474 887.668 374.474C889.453 374.474 891.442 374.933 893.686 376.004L891.748 382.328C890.677 381.92 889.402 381.716 888.025 381.716C883.843 381.716 879.1 383.705 879.1 388.193V402.422ZM897.049 383.705L895.315 377.33C898.222 375.545 903.373 374.168 908.32 374.168C915.205 374.168 921.784 376.769 921.733 384.572L921.682 392.834V392.987C921.682 395.282 921.937 396.251 924.334 396.251H924.691V402.422C917.857 402.422 913.879 401.708 913.369 397.322C911.278 400.688 907.045 402.626 901.69 402.677C895.774 402.779 892.867 399.158 892.867 395.231C892.867 390.437 897.1 385.184 905.26 385.49L909.748 385.592C911.125 385.643 913.165 385.643 913.318 384.113V384.011C913.318 381.869 911.023 381.104 908.116 381.104C904.138 381.104 898.936 382.532 897.049 383.705ZM913.318 390.539C912.4 391.202 911.125 391.508 909.646 391.508L905.464 391.457C903.118 391.406 901.843 392.783 901.843 394.058C901.843 395.231 902.914 396.302 905.209 396.251C907.759 396.098 913.165 394.772 913.318 390.743V390.539ZM957.531 378.248L953.961 384.317C951.207 382.226 945.801 380.696 941.925 380.696C939.426 380.696 937.59 381.359 937.59 382.889C937.59 386.816 957.582 383.858 957.582 395.129C957.582 401.351 950.952 403.85 943.71 403.85C937.845 403.85 931.521 402.218 928.053 399.566L931.623 393.242C934.428 395.741 940.242 397.271 944.424 397.271C947.127 397.271 949.167 396.608 949.167 395.129C949.167 390.386 929.532 394.619 929.532 382.532C929.532 376.361 935.448 373.964 942.078 373.964C947.688 373.964 953.91 375.698 957.531 378.248ZM963.611 391.049V374.882H971.975V391.049C971.975 394.772 974.729 396.506 977.636 396.506C980.747 396.506 984.062 394.466 984.215 390.692V374.882H992.579V399.158C992.579 409.817 984.878 415.223 974.066 415.223C970.649 415.223 966.416 414.05 963.356 412.52L964.784 404.87C967.232 406.604 971.414 407.726 975.137 407.726C981.818 407.726 984.215 404.615 984.215 399.464V398.597C982.022 401.708 978.503 403.289 974.984 403.289C969.323 403.289 963.611 399.209 963.611 391.049ZM1030.28 388.601C1030.28 398.444 1021.71 403.238 1014.36 403.238C1007.02 403.238 998.401 398.444 998.401 388.601C998.401 378.758 1007.02 373.964 1014.36 373.964C1021.71 373.964 1030.28 378.758 1030.28 388.601ZM1021.91 388.601C1021.91 383.96 1017.83 381.716 1014.36 381.716C1010.9 381.716 1006.82 383.96 1006.82 388.601C1006.82 393.191 1010.9 395.486 1014.36 395.486C1017.83 395.486 1021.91 393.191 1021.91 388.601ZM1044.41 402.422H1036.05V383.093C1036 382.124 1035.84 381.053 1034.77 381.053H1033.6V374.882H1034.82C1037.53 374.882 1044.05 374.882 1044.41 379.115C1046.25 376.463 1049.41 374.321 1053.85 374.321C1061.85 374.321 1065.83 378.248 1065.83 386.204V392.987C1065.83 395.282 1066.34 396.302 1068.74 396.302H1069.1L1069.15 402.422C1064.86 402.422 1057.42 402.677 1057.42 395.945V388.55C1057.42 383.195 1055.73 380.645 1051.3 380.645C1047.68 380.645 1044.41 383.603 1044.46 388.652L1044.41 388.601V402.422Z" fill="#4CC8A3"/>
</svg>
