<svg width="1068" height="418" viewBox="0 0 1068 418" fill="none" xmlns="http://www.w3.org/2000/svg">
<path d="M247 150H549V206H247V150Z" fill="#4CC8A3"/>
<path d="M160 297L160 115L220 115L220 297L160 297Z" fill="#4CC8A3"/>
<path d="M370.952 297H247V242H426L370.952 297Z" fill="#4CC8A3"/>
<path d="M1023 176H967.815L958.144 153.936H883.856L874.421 176H819L835.498 137.518L936.6 80.8798L874.662 46.1809L894.467 0H947.766L1023 176Z" fill="#6A0DAD"/>
<path d="M247 115H103.292L0 59H247V115Z" fill="#4CC8A3"/>
<path d="M883.698 59.648L921 80.728L889.76 98.3809L889.771 98.4004L841 126L854.797 93.2655L854.794 93.2694L871.964 53H871.967L883.698 59.648Z" fill="#4CC8A3"/>
<path d="M426 115H247V59H370.671L426 115Z" fill="#4CC8A3"/>
<path d="M644 176.711L479.766 341H379.118L543.352 176.711L378 11.3029L378.303 11H478.345L644 176.711Z" fill="#4CC8A3"/>
<path d="M804 176H752.042V94.1749L707.406 176H687.802L687.682 175.784L687.468 176L523 11.9211H581.977L689.613 119.301L697.658 104.375L697.724 104.498L752.042 4H804V176Z" fill="#6A0DAD"/>
<path d="M868 341V213H908.274L974.726 290.531V213H1015V341H974.726L908.274 263.469V341H868Z" fill="#6A0DAD"/>
<path d="M833.417 276C833.417 310.518 805.248 338.5 770.5 338.5M833.417 276C833.417 241.482 805.248 213.5 770.5 213.5M833.417 276H707.583M770.5 338.5C735.752 338.5 707.583 310.518 707.583 276M770.5 338.5C786.237 321.385 795.181 299.175 795.667 276C795.181 252.825 786.237 230.615 770.5 213.5M770.5 338.5C754.763 321.385 745.819 299.175 745.333 276C745.819 252.825 754.763 230.615 770.5 213.5M707.583 276C707.583 241.482 735.752 213.5 770.5 213.5" stroke="#6A0DAD" stroke-width="17" stroke-linecap="round" stroke-linejoin="round"/>
<path d="M686 214.427L623.733 277.187L678.065 340.409H626.856L596.875 304.259L560.429 341L510.066 340.996L510 340.93L660.725 189L686 214.427Z" fill="#6A0DAD"/>
<path d="M65.1418 366.977H101.199V369.986H84.7258V402.677H81.5638V369.986H65.1418V366.977ZM99.5548 388.907C99.5548 379.115 107.97 374.321 115.161 374.321C123.066 374.321 128.523 380.492 128.778 388.346H102.87C102.615 394.262 106.695 400.382 115.161 400.382C119.037 400.382 123.117 399.107 125.514 395.435L127.962 397.526C124.851 401.3 119.598 403.493 115.161 403.493C107.97 403.493 99.5548 398.699 99.5548 388.907ZM103.38 385.439H125.157C124.902 382.073 121.077 377.381 115.161 377.381C108.633 377.381 104.706 381.053 103.38 385.439ZM135.41 402.677V366.977H138.572V389.876L155.453 375.137H160.094L147.344 386.153C156.218 386.816 156.422 399.515 164.174 399.515L164.225 402.677C154.025 402.677 153.464 388.091 144.998 388.193L138.572 393.752V402.677H135.41ZM173.047 402.677H169.885V380.849C169.885 379.727 169.885 378.299 168.661 378.299H167.488V375.137H168.661C171.313 375.137 172.894 376.82 173.047 379.319C175.189 376.31 178.81 374.576 183.298 374.576C190.846 374.576 196.201 378.503 196.201 386.459V396.251C196.201 398.546 196.711 399.515 199.108 399.515H199.465L199.516 402.677C195.232 402.677 192.988 400.841 192.988 396.2V388.805C192.988 381.92 191.458 377.483 183.094 377.483C177.484 377.483 173.047 380.798 173.047 386.051V402.677ZM235.491 388.907C235.491 398.699 227.076 403.442 219.936 403.442C212.745 403.442 204.381 398.699 204.381 388.907C204.381 379.166 212.745 374.423 219.936 374.423C227.076 374.423 235.491 379.166 235.491 388.907ZM232.278 388.907C232.278 381.053 225.648 377.228 219.936 377.228C214.224 377.228 207.543 381.053 207.543 388.907C207.543 396.812 214.224 400.637 219.936 400.637C225.648 400.637 232.278 396.812 232.278 388.907ZM242.725 402.677V364.427H245.887V402.677H242.725ZM284.323 388.907C284.323 398.699 275.908 403.442 268.768 403.442C261.577 403.442 253.213 398.699 253.213 388.907C253.213 379.166 261.577 374.423 268.768 374.423C275.908 374.423 284.323 379.166 284.323 388.907ZM281.11 388.907C281.11 381.053 274.48 377.228 268.768 377.228C263.056 377.228 256.375 381.053 256.375 388.907C256.375 396.812 263.056 400.637 268.768 400.637C274.48 400.637 281.11 396.812 281.11 388.907ZM294.719 402.677H291.557V364.427H294.719V380.186C296.708 376.565 300.023 374.576 304.97 374.576C312.518 374.576 317.873 378.503 317.873 386.459V396.251C317.873 398.546 318.383 399.515 320.78 399.515H321.137L321.188 402.677C316.904 402.677 314.66 400.841 314.66 396.2V388.805C314.66 381.92 313.13 377.483 304.766 377.483C299.156 377.483 294.719 380.492 294.719 386.051V402.677ZM326.664 369.272C326.664 367.844 327.633 366.875 329.061 366.875C330.438 366.875 331.407 367.844 331.407 369.272C331.407 370.7 330.438 371.618 329.061 371.618C327.633 371.618 326.664 370.7 326.664 369.272ZM330.591 402.677H327.429V375.137H330.591V402.677ZM339.6 391.304V375.137H342.762V391.304C342.762 397.781 347.709 400.994 352.707 400.994C357.501 400.994 362.346 397.985 362.601 391.865L362.652 375.137H365.814V398.291C365.814 409.001 360.714 415.478 349.902 415.478C346.434 415.478 342.252 414.305 339.192 412.775L340.62 409.97C343.221 411.296 346.944 412.316 349.902 412.316C360.306 412.316 362.55 406.298 362.601 398.699C360.204 402.065 356.226 403.748 352.197 403.748C345.924 403.748 339.6 399.617 339.6 391.304ZM377.069 380.339L375.437 377.585C378.344 375.8 382.832 374.627 387.116 374.627C393.593 374.627 399.713 377.279 399.713 384.368V396.251C399.713 398.546 400.274 399.515 402.671 399.515H403.028V402.677C398.795 402.677 396.551 400.841 396.551 396.2V395.129C393.746 399.821 387.677 402.677 381.812 402.932C375.539 403.187 372.53 399.566 372.53 395.639C372.53 391.202 376.406 386.408 383.852 386.561L391.91 386.663C393.338 386.663 396.347 386.816 396.551 384.878C396.449 379.574 392.063 377.636 387.269 377.636C383.546 377.636 379.568 378.809 377.069 380.339ZM396.551 388.703C395.429 389.672 393.695 389.876 391.604 389.825L383.903 389.723C378.65 389.621 375.641 392.834 375.641 395.639C375.641 397.985 377.681 400.025 382.118 399.77C388.034 399.413 396.347 394.874 396.551 389.009V388.703ZM412.405 402.677H409.243V380.849C409.243 379.727 409.243 378.299 408.019 378.299H406.846V375.137H408.019C410.671 375.137 412.252 376.82 412.405 379.319C414.547 376.31 418.168 374.576 422.656 374.576C430.204 374.576 435.559 378.503 435.559 386.459V396.251C435.559 398.546 436.069 399.515 438.466 399.515H438.823L438.874 402.677C434.59 402.677 432.346 400.841 432.346 396.2V388.805C432.346 381.92 430.816 377.483 422.452 377.483C416.842 377.483 412.405 380.798 412.405 386.051V402.677ZM469.34 375.137H471.533V398.291C471.533 409.001 466.433 415.478 455.621 415.478C452.204 415.478 447.971 414.305 444.911 412.775L446.339 409.97C449.705 411.653 453.122 412.571 456.182 412.571C463.016 412.571 468.371 408.134 468.371 398.291V397.22C466.076 401.504 462.047 403.442 457.814 403.442C450.929 403.442 443.687 398.138 443.687 388.907C443.687 379.727 450.929 374.372 457.814 374.372C461.996 374.372 466.076 376.361 468.371 380.645L469.34 375.137ZM446.9 388.907C446.9 396.557 452.459 400.637 457.916 400.637C463.169 400.637 468.371 396.863 468.371 388.907C468.371 381.002 463.169 377.228 457.916 377.228C452.459 377.228 446.9 381.308 446.9 388.907ZM501.84 402.677H498.678V380.849C498.678 379.727 498.678 378.299 497.454 378.299H496.281V375.137H497.454C500.004 375.137 501.534 376.718 501.789 379.013C503.727 376.106 506.838 374.576 510.816 374.576C515.049 374.576 518.058 376.514 519.486 380.492C521.22 376.616 524.637 374.576 529.227 374.576C535.296 374.576 538.764 378.503 538.764 386.459V396.251C538.764 398.546 539.325 399.515 541.671 399.515H542.028L542.079 402.677C537.795 402.677 535.551 400.841 535.602 396.2V386.459C535.602 381.359 534.123 377.483 528.972 377.483C524.586 377.483 520.812 380.186 520.302 384.98C520.353 385.439 520.353 385.949 520.353 386.459V402.677L517.14 402.626L517.191 386.459C517.191 381.359 515.712 377.483 510.561 377.483C505.818 377.483 501.84 380.543 501.84 386.051V402.677ZM550.898 380.339L549.266 377.585C552.173 375.8 556.661 374.627 560.945 374.627C567.422 374.627 573.542 377.279 573.542 384.368V396.251C573.542 398.546 574.103 399.515 576.5 399.515H576.857V402.677C572.624 402.677 570.38 400.841 570.38 396.2V395.129C567.575 399.821 561.506 402.677 555.641 402.932C549.368 403.187 546.359 399.566 546.359 395.639C546.359 391.202 550.235 386.408 557.681 386.561L565.739 386.663C567.167 386.663 570.176 386.816 570.38 384.878C570.278 379.574 565.892 377.636 561.098 377.636C557.375 377.636 553.397 378.809 550.898 380.339ZM570.38 388.703C569.258 389.672 567.524 389.876 565.433 389.825L557.732 389.723C552.479 389.621 549.47 392.834 549.47 395.639C549.47 397.985 551.51 400.025 555.947 399.77C561.863 399.413 570.176 394.874 570.38 389.009V388.703ZM582.332 391.304V375.137H585.494V391.304C585.494 397.781 590.441 400.994 595.439 400.994C600.233 400.994 605.078 397.985 605.333 391.865L605.384 375.137H608.546V398.291C608.546 409.001 603.446 415.478 592.634 415.478C589.166 415.478 584.984 414.305 581.924 412.775L583.352 409.97C585.953 411.296 589.676 412.316 592.634 412.316C603.038 412.316 605.282 406.298 605.333 398.699C602.936 402.065 598.958 403.748 594.929 403.748C588.656 403.748 582.332 399.617 582.332 391.304Z" fill="#B045FD"/>
<path d="M660.526 402.677L647.674 388.499L643.645 392.426V402.677H635.128V366.977H643.645V381.512L658.639 366.977H669.451L653.284 382.94L671.593 402.677H660.526ZM704.034 388.856C704.034 398.699 695.466 403.493 688.122 403.493C680.778 403.493 672.159 398.699 672.159 388.856C672.159 379.013 680.778 374.219 688.122 374.219C695.466 374.219 704.034 379.013 704.034 388.856ZM695.67 388.856C695.67 384.215 691.59 381.971 688.122 381.971C684.654 381.971 680.574 384.215 680.574 388.856C680.574 393.446 684.654 395.741 688.122 395.741C691.59 395.741 695.67 393.446 695.67 388.856ZM718.169 402.677H709.805V383.348C709.754 382.379 709.601 381.308 708.53 381.308H707.357V375.137H708.581C711.284 375.137 717.812 375.137 718.169 379.37C720.005 376.718 723.167 374.576 727.604 374.576C735.611 374.576 739.589 378.503 739.589 386.459V393.242C739.589 395.537 740.099 396.557 742.496 396.557H742.853L742.904 402.677C738.62 402.677 731.174 402.932 731.174 396.2V388.805C731.174 383.45 729.491 380.9 725.054 380.9C721.433 380.9 718.169 383.858 718.22 388.907L718.169 388.856V402.677ZM775.77 378.503L772.2 384.572C769.446 382.481 764.04 380.951 760.164 380.951C757.665 380.951 755.829 381.614 755.829 383.144C755.829 387.071 775.821 384.113 775.821 395.384C775.821 401.606 769.191 404.105 761.949 404.105C756.084 404.105 749.76 402.473 746.292 399.821L749.862 393.497C752.667 395.996 758.481 397.526 762.663 397.526C765.366 397.526 767.406 396.863 767.406 395.384C767.406 390.641 747.771 394.874 747.771 382.787C747.771 376.616 753.687 374.219 760.317 374.219C765.927 374.219 772.149 375.953 775.77 378.503ZM780.983 368.252C780.983 365.753 782.717 364.121 785.369 364.121C788.021 364.121 789.806 365.753 789.806 368.252C789.806 370.7 788.021 372.383 785.369 372.383C782.717 372.383 780.983 370.7 780.983 368.252ZM789.551 402.677H781.187V375.137H789.551V402.677ZM818.131 364.427H826.495V402.677H819.151L818.335 398.291C816.04 401.81 812.419 403.442 808.645 403.442C801.913 403.442 794.875 398.138 794.875 388.907C794.875 379.727 801.913 374.372 808.645 374.372C812.266 374.372 815.785 375.902 818.131 379.217V364.427ZM803.29 388.907C803.29 394.109 807.166 396.812 810.889 396.812C814.51 396.812 818.08 394.262 818.08 388.907C818.08 383.552 814.51 381.053 810.889 381.053C807.166 381.053 803.29 383.756 803.29 388.907ZM832.19 388.958C832.19 379.217 840.605 374.219 847.796 374.219C855.395 374.219 862.178 379.676 862.229 389.774L840.707 389.723C841.217 393.14 843.665 396.149 848 396.149C851.366 396.149 853.763 394.874 855.446 392.579L861.005 397.526C857.945 401.3 853.202 403.748 847.745 403.748C840.605 403.748 832.19 398.699 832.19 388.958ZM841.319 384.674H854.171C853.202 382.328 851.213 380.237 848.153 380.237C844.634 380.237 842.39 382.175 841.319 384.674ZM875.761 402.677H867.397V383.348C867.346 382.379 867.193 381.308 866.122 381.308H864.949V375.137H866.173C868.927 375.137 875.761 375.137 875.761 379.727V379.778C877.648 376.871 880.453 374.729 884.329 374.729C886.114 374.729 888.103 375.188 890.347 376.259L888.409 382.583C887.338 382.175 886.063 381.971 884.686 381.971C880.504 381.971 875.761 383.96 875.761 388.448V402.677ZM893.71 383.96L891.976 377.585C894.883 375.8 900.034 374.423 904.981 374.423C911.866 374.423 918.445 377.024 918.394 384.827L918.343 393.089V393.242C918.343 395.537 918.598 396.506 920.995 396.506H921.352V402.677C914.518 402.677 910.54 401.963 910.03 397.577C907.939 400.943 903.706 402.881 898.351 402.932C892.435 403.034 889.528 399.413 889.528 395.486C889.528 390.692 893.761 385.439 901.921 385.745L906.409 385.847C907.786 385.898 909.826 385.898 909.979 384.368V384.266C909.979 382.124 907.684 381.359 904.777 381.359C900.799 381.359 895.597 382.787 893.71 383.96ZM909.979 390.794C909.061 391.457 907.786 391.763 906.307 391.763L902.125 391.712C899.779 391.661 898.504 393.038 898.504 394.313C898.504 395.486 899.575 396.557 901.87 396.506C904.42 396.353 909.826 395.027 909.979 390.998V390.794ZM954.192 378.503L950.622 384.572C947.868 382.481 942.462 380.951 938.586 380.951C936.087 380.951 934.251 381.614 934.251 383.144C934.251 387.071 954.243 384.113 954.243 395.384C954.243 401.606 947.613 404.105 940.371 404.105C934.506 404.105 928.182 402.473 924.714 399.821L928.284 393.497C931.089 395.996 936.903 397.526 941.085 397.526C943.788 397.526 945.828 396.863 945.828 395.384C945.828 390.641 926.193 394.874 926.193 382.787C926.193 376.616 932.109 374.219 938.739 374.219C944.349 374.219 950.571 375.953 954.192 378.503ZM960.273 391.304V375.137H968.637V391.304C968.637 395.027 971.391 396.761 974.298 396.761C977.409 396.761 980.724 394.721 980.877 390.947V375.137H989.241V399.413C989.241 410.072 981.54 415.478 970.728 415.478C967.311 415.478 963.078 414.305 960.018 412.775L961.446 405.125C963.894 406.859 968.076 407.981 971.799 407.981C978.48 407.981 980.877 404.87 980.877 399.719V398.852C978.684 401.963 975.165 403.544 971.646 403.544C965.985 403.544 960.273 399.464 960.273 391.304ZM1026.94 388.856C1026.94 398.699 1018.37 403.493 1011.03 403.493C1003.68 403.493 995.062 398.699 995.062 388.856C995.062 379.013 1003.68 374.219 1011.03 374.219C1018.37 374.219 1026.94 379.013 1026.94 388.856ZM1018.57 388.856C1018.57 384.215 1014.49 381.971 1011.03 381.971C1007.56 381.971 1003.48 384.215 1003.48 388.856C1003.48 393.446 1007.56 395.741 1011.03 395.741C1014.49 395.741 1018.57 393.446 1018.57 388.856ZM1041.07 402.677H1032.71V383.348C1032.66 382.379 1032.5 381.308 1031.43 381.308H1030.26V375.137H1031.48C1034.19 375.137 1040.72 375.137 1041.07 379.37C1042.91 376.718 1046.07 374.576 1050.51 374.576C1058.51 374.576 1062.49 378.503 1062.49 386.459V393.242C1062.49 395.537 1063 396.557 1065.4 396.557H1065.76L1065.81 402.677C1061.52 402.677 1054.08 402.932 1054.08 396.2V388.805C1054.08 383.45 1052.39 380.9 1047.96 380.9C1044.34 380.9 1041.07 383.858 1041.12 388.907L1041.07 388.856V402.677Z" fill="#4CC8A3"/>
</svg>
